<svg viewBox="0 0 42 42" xmlns="http://www.w3.org/2000/svg" xmlns:xlink="http://www.w3.org/1999/xlink"><title>icon-user-male-placeholder</title><g id="icon-user-male-placeholder" fill-rule="nonzero"><path d="M25.933,29.7150385 C25.787,28.1272132 25.843,27.0190844 25.843,25.5681745 C26.573,25.1909183 27.881,22.7855402 28.102,20.7534783 C28.676,20.7071831 29.581,20.1555813 29.846,17.9777389 C29.989,16.80854 29.421,16.1505578 29.075,15.9437071 C30.009,13.1768327 31.949,4.61715383 25.487,3.73262085 C24.822,2.58213696 23.119,2 20.906,2 C12.052,2.16055554 10.984,8.58573223 12.925,15.9437071 C12.58,16.1505578 12.012,16.80854 12.154,17.9777389 C12.42,20.1555813 13.324,20.7071831 13.898,20.7534783 C14.118,22.7845551 15.478,25.1909183 16.21,25.5681745 C16.21,27.0190844 16.265,28.1272132 16.119,29.7150385 C14.367,34.3544042 2.546,33.0522298 2,42 L40,42 C39.455,33.0522298 27.685,34.3544042 25.933,29.7150385 Z" id="Path" fill="#000000"></path></g></svg>